<?xml version="1.0" standalone="no"?><!DOCTYPE svg PUBLIC "-//W3C//DTD SVG 1.1//EN" "http://www.w3.org/Graphics/SVG/1.1/DTD/svg11.dtd"><svg t="1712650920257" class="icon" viewBox="0 0 1792 1024" version="1.1" xmlns="http://www.w3.org/2000/svg" p-id="1523" xmlns:xlink="http://www.w3.org/1999/xlink" width="224" height="128"><path d="M512.3476136 859.61255025c-89.0759387 0-178.15187738-33.89230824-246.02339744-101.67692539A345.00631891 345.00631891 0 0 1 164.3865807 512.34674457a345.00631891 345.00631891 0 0 1 101.93763546-245.67578452 347.26580569 347.26580569 0 0 1 481.53148915-10.08078923l1.39045308 1.30355086 48.40516881 48.31826522-66.56796987 66.48106631-47.70994159-47.53613511a253.23637628 253.23637628 0 0 0-350.48122971 7.99510894 251.58521249 251.58521249 0 0 0-74.30236878 179.19471753c0 67.78461649 26.33171648 131.39787239 74.30236878 179.19471754a254.27921644 254.27921644 0 0 0 358.91085515 0l0.78213012-0.78213011 298.42612038-284.17397054c28.15668674-27.80907382 65.35132258-43.10406381 104.979253-43.10406381a148.95235049 148.95235049 0 1 1-97.59246771 261.49219458l61.70138206-71.08694408a54.83601683 54.83601683 0 1 0-2.95471397-80.29870032l-0.86903369 0.7821308-298.33921749 284.17396986A347.09199922 347.09199922 0 0 1 512.3476136 859.61255025z m583.64293109-61.87518852c-70.30481398 0-140.6965315-26.15791001-196.14087201-78.73443942l64.74299894-68.21913367c75.60591897 71.60836416 192.75164084 70.04410393 266.44568597-3.6499412a190.83976701 190.83976701 0 1 0-270.09562649-269.74801287l-0.60832364 0.60832295L663.73325733 664.08000191a214.30367307 214.30367307 0 1 1-303.03199816-303.29270819 215.95483687 215.95483687 0 0 1 289.648882-12.51408315l3.56303696 3.30232757 47.18852218 47.10161795-66.56796987 66.48106629-45.79806843-45.71116416a121.0563731 121.0563731 0 0 0-161.46643296 7.82130179 120.18733943 120.18733943 0 1 0 170.15676844 169.98296197l0.60832364-0.60832364 296.60115013-286.08584371A283.47874333 283.47874333 0 0 1 1095.99054469 227.47754748a284.86919708 284.86919708 0 0 1 201.61578279 486.22426984 284.52158347 284.52158347 0 0 1-201.61578279 84.03554441z" p-id="1524" fill="#e6e6e6"></path></svg>